<?xml version="1.0" encoding="UTF-8"?>
<svg id="Capa_2" data-name="Capa 2" xmlns="http://www.w3.org/2000/svg" viewBox="0 0 683.75 662.39">
  <defs>
    <style>
      .cls-1 {
        fill: #6f6;
      }
    </style>
  </defs>
  <g id="Capa_1-2" data-name="Capa 1">
    <path class="cls-1" d="M554.64,335.22l129.11-76.48-165.37,5.55,108.73-173.87-142.09,75.36L515.7.87l-134.81,140.53L334.29,0l-64.26,163.71L118.07,18.35l82.12,193.8L0,199.38l181.6,82.01L20.46,368.22l168.14,2.78L21.62,555.44l191.92-89.45-35.2,196.41,130.39-145.37,23.56,118.6,48.2-113.78,88.71,137.38-4.75-174.88,163.04,75.25-99.28-154.69,141.63,7.96-115.21-77.62ZM404.62,433.71c-11.44,10.98-25.73,16.48-42.88,16.48s-32.5-5.42-46.95-16.25c-2.11-1.81-4.06-2.71-5.87-2.71-2.11,0-4.06,1.81-5.87,5.42l-3.16,9.03h-9.48l-3.16-96.15h9.48c3.01,26.79,10.23,47.4,21.67,61.84,11.43,14.45,24.83,21.67,40.18,21.67,10.53,0,18.73-3.53,24.6-10.61,5.87-7.07,8.8-16.77,8.8-29.12,0-7.52-1.35-13.99-4.06-19.41s-7.38-11.21-13.99-17.38c-6.62-6.16-17.76-15.87-33.4-29.12-18.96-15.64-32.05-28.51-39.27-38.6-7.22-10.08-10.83-21.29-10.83-33.63,0-17.15,5.49-31.15,16.48-41.98,10.98-10.83,24.9-16.25,41.76-16.25s29.94,4.97,41.08,14.9c2.1,2.11,4.21,3.16,6.32,3.16,2.41,0,4.06-1.81,4.97-5.42l2.26-9.48h9.48l1.81,77.19h-9.48c-2.71-18.66-8.73-33.93-18.06-45.82-9.33-11.88-21.07-17.83-35.21-17.83-9.33,0-16.93,3.01-22.8,9.03-5.87,6.02-8.8,13.85-8.8,23.47s2.93,17.54,8.8,24.6c5.87,7.08,17.22,17.38,34.08,30.92,21.96,18.06,37.24,32.88,45.82,44.46,8.58,11.59,12.87,25.21,12.87,40.85,0,20.17-5.72,35.74-17.15,46.72Z"/>
  </g>
</svg>